<?xml version="1.0" standalone="no"?><svg xmlns="http://www.w3.org/2000/svg" viewBox="0 0 1440 320"><path fill="#faf4f0" fill-opacity="1" d="M0,224L20,218.7C40,213,80,203,120,165.3C160,128,200,64,240,53.3C280,43,320,85,360,90.7C400,96,440,64,480,85.3C520,107,560,181,600,176C640,171,680,85,720,53.3C760,21,800,43,840,85.3C880,128,920,192,960,202.7C1000,213,1040,171,1080,154.7C1120,139,1160,149,1200,149.3C1240,149,1280,139,1320,122.7C1360,107,1400,85,1420,74.7L1440,64L1440,320L1420,320C1400,320,1360,320,1320,320C1280,320,1240,320,1200,320C1160,320,1120,320,1080,320C1040,320,1000,320,960,320C920,320,880,320,840,320C800,320,760,320,720,320C680,320,640,320,600,320C560,320,520,320,480,320C440,320,400,320,360,320C320,320,280,320,240,320C200,320,160,320,120,320C80,320,40,320,20,320L0,320Z"></path></svg>